<?xml version="1.0" encoding="UTF-8"?> <!-- Generator: Adobe Illustrator 21.0.2, SVG Export Plug-In . SVG Version: 6.00 Build 0) --> <svg xmlns="http://www.w3.org/2000/svg" xmlns:xlink="http://www.w3.org/1999/xlink" id="Layer_1" x="0px" y="0px" viewBox="0 0 238.1 168.4" style="enable-background:new 0 0 238.1 168.4;" xml:space="preserve"> <style type="text/css"> .st0{clip-path:url(#SVGID_2_);} .st1{fill:#39A935;} .st2{fill-rule:evenodd;clip-rule:evenodd;fill:#0059A1;} .st3{fill:#0059A1;} </style> <g> <defs> <rect id="SVGID_1_" x="0" width="238.1" height="168.4"></rect> </defs> <clipPath id="SVGID_2_"> <use xlink:href="#SVGID_1_" style="overflow:visible;"></use> </clipPath> <g class="st0"> <path class="st1" d="M-0.2,124l-0.7-2c44.3-14.7,131-37.1,239.7-22.6l-0.3,2.1C130.4,87,44,109.3-0.2,124z"></path> <g> <polygon class="st2" points="109.1,8.6 110.8,16 118.3,17.7 111,19.3 109.1,26.3 107,19.4 100.3,17.6 107.1,16 "></polygon> <polygon class="st2" points="85.6,32.3 87.4,39.7 94.8,41.4 87.6,42.9 85.6,50 83.5,43 76.9,41.2 83.7,39.7 "></polygon> <polygon class="st2" points="137.4,23.9 139.2,31.3 146.7,33 139.4,34.6 137.4,41.6 135.4,34.7 128.7,32.9 135.5,31.3 "></polygon> <polygon class="st2" points="119,74.6 120.8,82.1 128.2,83.8 120.9,85.3 119,92.4 116.9,85.4 110.3,83.6 117.1,82.1 "></polygon> </g> <g> <path class="st3" d="M29.2,132.9h3.5v26.5H29v-20.6l-8.2,10.2h-0.7l-8.2-10.2v20.6H8.1v-26.5h3.6l8.8,10.9L29.2,132.9z"></path> <path class="st3" d="M41.8,132.9h15v3.4H45.6v8.1h10.9v3.4H45.6v8.2h11.6v3.4H41.8V132.9z"></path> <path class="st3" d="M64.7,159.4v-26.5h6.6c2.7,0,4.8,0.7,6.4,2c1.6,1.3,2.4,3.1,2.4,5.4c0,1.5-0.4,2.9-1.2,4 c-0.8,1.1-1.9,2-3.3,2.5c0.8,0.6,1.7,1.3,2.5,2.3c0.8,1,1.9,2.6,3.4,5c0.9,1.5,1.7,2.6,2.2,3.4l1.4,1.9h-4.5l-1.2-1.7 c0-0.1-0.1-0.2-0.2-0.3l-0.7-1l-1.2-1.9l-1.3-2.1c-0.8-1.1-1.5-2-2.2-2.6c-0.7-0.6-1.2-1.1-1.8-1.4c-0.5-0.3-1.4-0.4-2.6-0.4h-1 v11.5H64.7z M69.6,136.2h-1.1v8.4h1.4c1.9,0,3.2-0.2,4-0.5c0.7-0.3,1.3-0.8,1.7-1.5c0.4-0.7,0.6-1.4,0.6-2.3 c0-0.8-0.2-1.6-0.7-2.3c-0.4-0.7-1.1-1.2-1.9-1.4C72.8,136.3,71.4,136.2,69.6,136.2z"></path> <path class="st3" d="M114.2,153.3v4.2c-2.8,1.5-6,2.3-9.6,2.3c-3,0-5.5-0.6-7.5-1.8c-2.1-1.2-3.7-2.8-4.9-4.9 c-1.2-2.1-1.8-4.3-1.8-6.8c0-3.9,1.4-7.1,4.1-9.7c2.7-2.6,6.1-3.9,10.2-3.9c2.8,0,5.9,0.7,9.3,2.2v4.1c-3.1-1.8-6.1-2.7-9.1-2.7 c-3,0-5.6,1-7.6,2.9c-2,1.9-3,4.3-3,7.2c0,2.9,1,5.3,3,7.2c2,1.9,4.5,2.8,7.6,2.8C108,156.3,111.1,155.3,114.2,153.3z"></path> <path class="st3" d="M135.2,132.6c4.1,0,7.5,1.3,10.2,3.9c2.7,2.6,4.1,5.8,4.1,9.8c0,3.9-1.4,7.1-4.1,9.7 c-2.7,2.6-6.2,3.8-10.4,3.8c-4,0-7.3-1.3-10-3.8c-2.7-2.6-4-5.8-4-9.6c0-4,1.3-7.2,4-9.8C127.7,133.9,131.1,132.6,135.2,132.6z M135.3,136.2c-3,0-5.5,0.9-7.5,2.8c-2,1.9-2.9,4.3-2.9,7.3c0,2.9,1,5.2,2.9,7.1c2,1.9,4.4,2.8,7.4,2.8c3,0,5.4-1,7.4-2.9 c2-1.9,3-4.3,3-7.2c0-2.8-1-5.2-3-7.1C140.6,137.1,138.2,136.2,135.3,136.2z"></path> <path class="st3" d="M164,148.3l-2.9-1.8c-1.8-1.1-3.1-2.2-3.9-3.3c-0.8-1.1-1.1-2.3-1.1-3.7c0-2.1,0.7-3.8,2.2-5.1 c1.4-1.3,3.3-2,5.6-2c2.2,0,4.2,0.6,6.1,1.9v4.3c-1.9-1.8-4-2.8-6.2-2.8c-1.2,0-2.3,0.3-3.1,0.9c-0.8,0.6-1.2,1.3-1.2,2.2 c0,0.8,0.3,1.5,0.9,2.2c0.6,0.7,1.5,1.4,2.8,2.2l2.9,1.7c3.2,1.9,4.8,4.4,4.8,7.4c0,2.1-0.7,3.9-2.1,5.2c-1.4,1.3-3.3,2-5.6,2 c-2.6,0-5-0.8-7.2-2.4v-4.8c2.1,2.6,4.4,3.9,7.1,3.9c1.2,0,2.2-0.3,3-1c0.8-0.7,1.2-1.5,1.2-2.5 C167.5,151.3,166.3,149.8,164,148.3z"></path> <path class="st3" d="M197,132.9h3.8v15c0,2-0.1,3.6-0.4,4.6c-0.3,1-0.7,1.9-1.1,2.6c-0.4,0.7-1,1.3-1.6,1.9 c-2.1,1.8-4.8,2.7-8.2,2.7c-3.5,0-6.2-0.9-8.3-2.7c-0.6-0.6-1.2-1.2-1.6-1.9c-0.4-0.7-0.8-1.5-1.1-2.5c-0.3-1-0.4-2.6-0.4-4.7 v-15h3.8v15c0,2.5,0.3,4.2,0.9,5.2c0.6,1,1.4,1.8,2.6,2.3c1.2,0.6,2.5,0.9,4.1,0.9c2.3,0,4.1-0.6,5.5-1.8 c0.7-0.6,1.3-1.4,1.6-2.2c0.3-0.9,0.5-2.3,0.5-4.4V132.9z"></path> <path class="st3" d="M209.5,159.4v-26.5h6.6c2.7,0,4.8,0.7,6.4,2c1.6,1.3,2.4,3.1,2.4,5.4c0,1.5-0.4,2.9-1.2,4 c-0.8,1.1-1.9,2-3.3,2.5c0.8,0.6,1.7,1.3,2.5,2.3c0.8,1,1.9,2.6,3.4,5c0.9,1.5,1.7,2.6,2.2,3.4l1.4,1.9h-4.5l-1.2-1.7 c0-0.1-0.1-0.2-0.2-0.3l-0.7-1l-1.2-1.9l-1.3-2.1c-0.8-1.1-1.5-2-2.2-2.6c-0.7-0.6-1.2-1.1-1.8-1.4c-0.5-0.3-1.4-0.4-2.7-0.4h-1 v11.5H209.5z M214.4,136.2h-1.1v8.4h1.4c1.9,0,3.2-0.2,4-0.5c0.7-0.3,1.3-0.8,1.7-1.5c0.4-0.7,0.6-1.4,0.6-2.3 c0-0.8-0.2-1.6-0.7-2.3c-0.4-0.7-1.1-1.2-1.9-1.4C217.6,136.3,216.3,136.2,214.4,136.2z"></path> </g> </g> </g> </svg> 